HIERARCHY
ROOT hip
{
  OFFSET 0.00112043 5.09927 -9.65472
  CHANNELS 6 Xposition Yposition Zposition Zrotation Xrotation Yrotation
  JOINT abdomen
  {
    OFFSET 0 -1.186 -1.5018
    CHANNELS 3 Zrotation Xrotation Yrotation
    JOINT abdomen2
    {
      OFFSET 0 9.964 0.2134
      CHANNELS 3 Zrotation Xrotation Yrotation
      JOINT chest
      {
        OFFSET 0 13.134 -3.2573
        CHANNELS 3 Zrotation Xrotation Yrotation
        JOINT neck
        {
          OFFSET 0 20.686 -1.6905
          CHANNELS 3 Zrotation Xrotation Yrotation
          JOINT head
          {
            OFFSET 0 7.238 -0.1237
            CHANNELS 3 Zrotation Xrotation Yrotation
            End Site
            {
              OFFSET 0 0 0
            }
          }
        }
        JOINT lCollar
        {
          OFFSET 1.7069 20.075 5.0056
          CHANNELS 3 Zrotation Xrotation Yrotation
          JOINT lShldr
          {
            OFFSET 13.6458 -0.047 -4.849
            CHANNELS 3 Zrotation Xrotation Yrotation
            JOINT lForeArm
            {
              OFFSET 28.3255 -0.9759 2.2888
              CHANNELS 3 Zrotation Xrotation Yrotation
              JOINT lHand
              {
                OFFSET 22.1583 -0.53 10.8316
                CHANNELS 3 Zrotation Xrotation Yrotation
                JOINT lThumb1
                {
                  OFFSET 0.786 0.112 2.5817
                  CHANNELS 3 Zrotation Xrotation Yrotation
                  JOINT lThumb2
                  {
                    OFFSET 0.3601 -0.878 4.2331
                    CHANNELS 3 Zrotation Xrotation Yrotation
                    JOINT lThumb2_End
                    {
                      OFFSET 1.8127 -1.216 2.2227
                      CHANNELS 3 Zrotation Xrotation Yrotation
                      End Site
                      {
                        OFFSET 0.0181 -0.0122 0.0222
                      }
                    }
                  }
                }
                JOINT lCarpal1
                {
                  OFFSET 0.9571 1.114 1.7695
                  CHANNELS 3 Zrotation Xrotation Yrotation
                  JOINT lIndex1
                  {
                    OFFSET 4.1246 0.487 4.1451
                    CHANNELS 3 Zrotation Xrotation Yrotation
                    JOINT lIndex2
                    {
                      OFFSET 3.4052 -1.454 2.7682
                      CHANNELS 3 Zrotation Xrotation Yrotation
                      JOINT lIndex2_End
                      {
                        OFFSET 1.4531 -1.795 1.2713
                        CHANNELS 3 Zrotation Xrotation Yrotation
                        End Site
                        {
                          OFFSET 0.0145 -0.0179 0.0127
                        }
                      }
                    }
                  }
                  JOINT lMid1
                  {
                    OFFSET 5.6954 0.21 2.1184
                    CHANNELS 3 Zrotation Xrotation Yrotation
                    JOINT lMid2
                    {
                      OFFSET 3.9766 -1.54 2.3863
                      CHANNELS 3 Zrotation Xrotation Yrotation
                      JOINT lMid2_End
                      {
                        OFFSET 1.4042 -1.926 1.125
                        CHANNELS 3 Zrotation Xrotation Yrotation
                        End Site
                        {
                          OFFSET 0.014 -0.0193 0.0113
                        }
                      }
                    }
                  }
                }
                JOINT lCarpal2
                {
                  OFFSET 2.0956 0.66 -0.3894
                  CHANNELS 3 Zrotation Xrotation Yrotation
                  JOINT lRing1
                  {
                    OFFSET 5.0395 -0.09 2.4971
                    CHANNELS 3 Zrotation Xrotation Yrotation
                    JOINT lRing2
                    {
                      OFFSET 3.7921 -1.552 1.4806
                      CHANNELS 3 Zrotation Xrotation Yrotation
                      JOINT lRing2_End
                      {
                        OFFSET 1.4655 -1.808 0.9609
                        CHANNELS 3 Zrotation Xrotation Yrotation
                        End Site
                        {
                          OFFSET 0.0147 -0.0181 0.0096
                        }
                      }
                    }
                  }
                  JOINT lPinky1
                  {
                    OFFSET 4.9141 -1.269 0.3591
                    CHANNELS 3 Zrotation Xrotation Yrotation
                    JOINT lPinky2
                    {
                      OFFSET 3.1477 -1.685 0.8462
                      CHANNELS 3 Zrotation Xrotation Yrotation
                      JOINT lPinky2_End
                      {
                        OFFSET 0.8055 -1.585 0.7955
                        CHANNELS 3 Zrotation Xrotation Yrotation
                        End Site
                        {
                          OFFSET 0.0081 -0.0158 0.008
                        }
                      }
                    }
                  }
                }
              }
            }
          }
        }
        JOINT rCollar
        {
          OFFSET -1.7069 20.075 5.0056
          CHANNELS 3 Zrotation Xrotation Yrotation
          JOINT rShldr
          {
            OFFSET -13.6458 -0.047 -4.849
            CHANNELS 3 Zrotation Xrotation Yrotation
            JOINT rForeArm
            {
              OFFSET -28.3255 -0.9759 2.2888
              CHANNELS 3 Zrotation Xrotation Yrotation
              JOINT rHand
              {
                OFFSET -22.1583 -0.53 10.8316
                CHANNELS 3 Zrotation Xrotation Yrotation
                JOINT rThumb1
                {
                  OFFSET -0.786 0.112 2.5817
                  CHANNELS 3 Zrotation Xrotation Yrotation
                  JOINT rThumb2
                  {
                    OFFSET -0.3601 -0.878 4.2331
                    CHANNELS 3 Zrotation Xrotation Yrotation
                    JOINT rThumb2_End
                    {
                      OFFSET -1.8127 -1.216 2.2227
                      CHANNELS 3 Zrotation Xrotation Yrotation
                      End Site
                      {
                        OFFSET -0.0181 -0.0122 0.0222
                      }
                    }
                  }
                }
                JOINT rCarpal1
                {
                  OFFSET -0.9571 1.114 1.7695
                  CHANNELS 3 Zrotation Xrotation Yrotation
                  JOINT rIndex1
                  {
                    OFFSET -4.1246 0.487 4.1451
                    CHANNELS 3 Zrotation Xrotation Yrotation
                    JOINT rIndex2
                    {
                      OFFSET -3.4052 -1.454 2.7682
                      CHANNELS 3 Zrotation Xrotation Yrotation
                      JOINT rIndex2_End
                      {
                        OFFSET -1.4531 -1.795 1.2713
                        CHANNELS 3 Zrotation Xrotation Yrotation
                        End Site
                        {
                          OFFSET -0.0145 -0.018 0.0127
                        }
                      }
                    }
                  }
                  JOINT rMid1
                  {
                    OFFSET -5.6954 0.21 2.1184
                    CHANNELS 3 Zrotation Xrotation Yrotation
                    JOINT rMid2
                    {
                      OFFSET -3.9766 -1.54 2.3863
                      CHANNELS 3 Zrotation Xrotation Yrotation
                      JOINT rMid2_End
                      {
                        OFFSET -1.4042 -1.926 1.125
                        CHANNELS 3 Zrotation Xrotation Yrotation
                        End Site
                        {
                          OFFSET -0.014 -0.0193 0.0113
                        }
                      }
                    }
                  }
                }
                JOINT rCarpal2
                {
                  OFFSET -2.0956 0.66 -0.3894
                  CHANNELS 3 Zrotation Xrotation Yrotation
                  JOINT rRing1
                  {
                    OFFSET -5.0395 -0.09 2.4971
                    CHANNELS 3 Zrotation Xrotation Yrotation
                    JOINT rRing2
                    {
                      OFFSET -3.7921 -1.552 1.4806
                      CHANNELS 3 Zrotation Xrotation Yrotation
                      JOINT rRing2_End
                      {
                        OFFSET -1.4655 -1.808 0.9609
                        CHANNELS 3 Zrotation Xrotation Yrotation
                        End Site
                        {
                          OFFSET -0.0147 -0.0181 0.0096
                        }
                      }
                    }
                  }
                  JOINT rPinky1
                  {
                    OFFSET -4.9141 -1.269 0.3592
                    CHANNELS 3 Zrotation Xrotation Yrotation
                    JOINT rPinky2
                    {
                      OFFSET -3.1477 -1.685 0.8462
                      CHANNELS 3 Zrotation Xrotation Yrotation
                      JOINT rPinky2_End
                      {
                        OFFSET -0.8055 -1.585 0.7955
                        CHANNELS 3 Zrotation Xrotation Yrotation
                        End Site
                        {
                          OFFSET -0.0081 -0.0158 0.008
                        }
                      }
                    }
                  }
                }
              }
            }
          }
        }
      }
    }
  }
  JOINT lThigh
  {
    OFFSET 8.367 -8.2066 0.5982
    CHANNELS 3 Zrotation Xrotation Yrotation
    JOINT lShin
    {
      OFFSET 2.1923 -43.463 -0.4932
      CHANNELS 3 Zrotation Xrotation Yrotation
      JOINT lFoot
      {
        OFFSET 0.7333 -45.8593 -2.6451
        CHANNELS 3 Zrotation Xrotation Yrotation
        End Site
        {
          OFFSET 2.6618 -4.2699 12.3931
        }
      }
    }
  }
  JOINT rThigh
  {
    OFFSET -8.367 -8.2066 0.5982
    CHANNELS 3 Zrotation Xrotation Yrotation
    JOINT rShin
    {
      OFFSET -2.1923 -43.463 -0.4931
      CHANNELS 3 Zrotation Xrotation Yrotation
      JOINT rFoot
      {
        OFFSET -0.7333 -45.8593 -2.6451
        CHANNELS 3 Zrotation Xrotation Yrotation
        End Site
        {
          OFFSET -2.6618 -4.2699 12.3931
        }
      }
    }
  }
}
MOTION
Frames:	4
Frame Time:	0.0333333
42.2938 34.9245 37.1726 -179.996 51.0054 8.95158e-011 -0.172729 -1.95772 0.134978 -0.341138 -3.91577 0.264279 -0.341138 -3.91578 0.264278 -9.98013e-006 15.9926 4.67609e-006 9.76291e-009 21.341 -3.04029e-007 6.16072 1.44708 17.8844 -13.551 58.7831 31.2419 37.2695 44.0451 -59.977 -0.0808521 -1.30216 8.31971 -8.10473e-007 -1.59969e-007 2.04594e-007 -3.53113e-031 6.36111e-015 3.18055e-015 8.10473e-007 1.59969e-007 -2.04594e-007 1.76556e-031 -3.18055e-015 3.18055e-015 -8.10473e-007 -1.59969e-007 2.04594e-007 3.18055e-015 0 6.36111e-015 8.10473e-007 1.59969e-007 -2.04593e-007 -8.10473e-007 -1.59969e-007 2.04594e-007 3.18055e-015 0 6.36111e-015 8.10473e-007 1.59969e-007 -2.04593e-007 1.76556e-031 -3.18055e-015 3.18055e-015 -8.10473e-007 -1.59969e-007 2.04594e-007 3.18055e-015 0 6.36111e-015 8.10473e-007 1.59969e-007 -2.04593e-007 -8.10473e-007 -1.59969e-007 2.04594e-007 3.18055e-015 0 6.36111e-015 8.10473e-007 1.59969e-007 -2.04593e-007 -6.18127 1.45131 -17.9018 17.7905 57.7974 -35.4992 -37.8683 43.0293 59.4449 0.06917 -1.07445 -8.34633 -8.10201e-007 1.47788e-007 2.13619e-007 -1.59028e-015 -3.18055e-015 3.18055e-015 -8.10201e-007 1.47788e-007 2.13619e-007 -1.59028e-015 -3.18055e-015 3.18055e-015 -8.10201e-007 1.47788e-007 2.13619e-007 -0 -9.54166e-015 -0 -8.10201e-007 1.47788e-007 2.13619e-007 -8.10201e-007 1.47788e-007 2.13619e-007 -0 -9.54166e-015 -0 -8.10201e-007 1.47788e-007 2.13619e-007 -1.59028e-015 -3.18055e-015 3.18055e-015 -8.10201e-007 1.47788e-007 2.13619e-007 -0 -9.54166e-015 -0 -8.10201e-007 1.47788e-007 2.13619e-007 -8.10201e-007 1.47788e-007 2.13619e-007 -0 -9.54166e-015 -0 -8.10201e-007 1.47788e-007 2.13619e-007 41.9257 30.2383 31.3268 64.4323 37.6901 -63.4611 -11.5332 21.7057 -16.396 -43.0514 30.0696 -31.949 -63.8908 37.3677 63.168 9.80054 22.051 17.7998 
42.2952 34.9233 37.1737 -179.996 51.0054 8.95158e-011 -0.172495 -1.91258 0.135395 -0.34075 -3.82549 0.265248 -0.34075 -3.82549 0.265248 -4.56691e-006 15.9934 2.40465e-006 -7.16411e-008 20.4759 2.66231e-008 6.16072 1.44712 17.8843 -13.5208 58.7889 31.2057 37.2695 44.0451 -59.977 -0.0808522 -1.30216 8.31972 8.10906e-007 1.59764e-007 -2.02966e-007 1.62181e-006 3.19527e-007 -4.05931e-007 -2.38542e-014 -9.54166e-015 6.36111e-015 1.59028e-015 -3.18055e-015 -0 8.10906e-007 1.59764e-007 -2.02966e-007 1.62181e-006 3.19527e-007 -4.05931e-007 -2.70347e-014 -1.27222e-014 6.36111e-015 8.10906e-007 1.59764e-007 -2.02966e-007 1.62181e-006 3.19527e-007 -4.05931e-007 -2.70347e-014 -1.27222e-014 6.36111e-015 1.59028e-015 -3.18055e-015 -0 8.10906e-007 1.59764e-007 -2.02966e-007 1.62181e-006 3.19527e-007 -4.05931e-007 -2.70347e-014 -1.27222e-014 6.36111e-015 8.10906e-007 1.59764e-007 -2.02966e-007 1.62181e-006 3.19527e-007 -4.05931e-007 -2.70347e-014 -1.27222e-014 6.36111e-015 -6.18127 1.45132 -17.9018 17.7905 57.7974 -35.4992 -37.8683 43.0293 59.4449 0.0691675 -1.07445 -8.34633 8.10621e-007 -1.47648e-007 -2.12022e-007 -4.9849e-007 1.40914e-006 -2.13409e-006 1.62124e-006 -2.95296e-007 -4.24045e-007 -1.59028e-015 -6.36111e-015 -0 8.10621e-007 -1.47648e-007 -2.12022e-007 -4.9849e-007 1.40914e-006 -2.13409e-006 1.62124e-006 -2.95296e-007 -4.24045e-007 8.10621e-007 -1.47648e-007 -2.12022e-007 -4.9849e-007 1.40914e-006 -2.13409e-006 1.62124e-006 -2.95296e-007 -4.24045e-007 -1.59028e-015 -6.36111e-015 -0 8.10621e-007 -1.47648e-007 -2.12022e-007 -4.9849e-007 1.40914e-006 -2.13409e-006 1.62124e-006 -2.95296e-007 -4.24045e-007 8.10621e-007 -1.47648e-007 -2.12022e-007 -4.9849e-007 1.40914e-006 -2.13409e-006 1.62124e-006 -2.95296e-007 -4.24045e-007 41.5851 30.3414 31.1224 64.4307 37.6892 -63.4516 -11.965 21.6616 -15.9493 -42.5749 30.2108 -31.6944 -63.8897 37.3668 63.1563 10.411 22.0097 17.173 
42.2967 34.9221 37.1749 -179.996 51.0054 8.95158e-011 -0.172263 -1.86742 0.135813 -0.340364 -3.73525 0.266216 -0.340364 -3.73522 0.266217 7.18036e-007 15.9933 -8.73204e-007 -8.28923e-009 19.611 2.48001e-009 6.16073 1.44716 17.8843 -13.4905 58.7946 31.1695 37.2695 44.0451 -59.977 -0.0808536 -1.30216 8.3197 -3.18055e-015 -3.18055e-015 6.36111e-015 -1.13045e-006 1.46311e-006 3.3798e-007 -8.11336e-007 -1.59558e-007 2.01337e-007 -1.59028e-015 0 6.36111e-015 -3.18055e-015 0 9.54166e-015 -1.13045e-006 1.46311e-006 3.3798e-007 -8.11336e-007 -1.59558e-007 2.01337e-007 -3.18055e-015 0 9.54166e-015 -1.13045e-006 1.46311e-006 3.3798e-007 -8.11336e-007 -1.59558e-007 2.01337e-007 -1.59028e-015 0 6.36111e-015 -3.18055e-015 0 9.54166e-015 -1.13045e-006 1.46311e-006 3.3798e-007 -8.11336e-007 -1.59558e-007 2.01337e-007 -3.18055e-015 0 9.54166e-015 -1.13045e-006 1.46311e-006 3.3798e-007 -8.11336e-007 -1.59558e-007 2.01337e-007 -6.18127 1.45136 -17.9018 17.7905 57.7974 -35.4992 -37.8683 43.0293 59.4449 0.0691734 -1.07446 -8.34632 8.11037e-007 -1.47507e-007 -2.10425e-007 0 0 -3.18055e-015 8.11037e-007 -1.47507e-007 -2.10425e-007 1.59028e-015 3.18055e-015 -3.18055e-015 8.11037e-007 -1.47507e-007 -2.10425e-007 1.59028e-015 -3.18055e-015 3.18055e-015 8.11037e-007 -1.47507e-007 -2.10425e-007 8.11037e-007 -1.47507e-007 -2.10425e-007 1.59028e-015 -3.18055e-015 3.18055e-015 8.11037e-007 -1.47507e-007 -2.10425e-007 1.59028e-015 3.18055e-015 -3.18055e-015 8.11037e-007 -1.47507e-007 -2.10425e-007 1.59028e-015 -3.18055e-015 3.18055e-015 8.11037e-007 -1.47507e-007 -2.10425e-007 8.11037e-007 -1.47507e-007 -2.10425e-007 1.59028e-015 -3.18055e-015 3.18055e-015 8.11037e-007 -1.47507e-007 -2.10425e-007 41.2449 30.4458 30.9184 64.4289 37.6883 -63.442 -12.3962 21.6144 -15.5032 -42.0985 30.3538 -31.4407 -63.8885 37.3658 63.1446 11.0206 21.9623 16.5469 
42.2981 34.9209 37.176 -179.996 51.0054 8.95158e-011 -0.172028 -1.82231 0.136228 -0.339977 -3.64497 0.267181 -0.339977 -3.645 0.267181 3.00188e-007 15.9933 -1.20796e-006 -8.03003e-008 18.7464 1.58019e-007 6.16073 1.44714 17.8843 -13.4603 58.8004 31.1332 37.2695 44.0451 -59.977 -0.0808527 -1.30217 8.31972 1.11753e-006 -1.89759e-006 3.11002e-006 8.11763e-007 1.59351e-007 -1.99708e-007 1.61059e-006 -1.14714e-007 3.04734e-006 1.59028e-015 0 3.18055e-015 1.11753e-006 -1.89759e-006 3.11002e-006 8.11763e-007 1.59351e-007 -1.99708e-007 1.61059e-006 -1.14714e-007 3.04734e-006 1.11753e-006 -1.89759e-006 3.11002e-006 8.11763e-007 1.59351e-007 -1.99708e-007 1.61059e-006 -1.14714e-007 3.04734e-006 1.59028e-015 0 3.18055e-015 1.11753e-006 -1.89759e-006 3.11002e-006 8.11763e-007 1.59351e-007 -1.99708e-007 1.61059e-006 -1.14714e-007 3.04734e-006 1.11753e-006 -1.89759e-006 3.11002e-006 8.11763e-007 1.59351e-007 -1.99708e-007 1.61059e-006 -1.14714e-007 3.04734e-006 -6.18127 1.45136 -17.9018 17.7905 57.7974 -35.4992 -37.8683 43.0293 59.4449 0.0691686 -1.07444 -8.34632 8.1145e-007 -1.47366e-007 -2.08828e-007 1.6229e-006 -2.94732e-007 -4.17656e-007 -8.1145e-007 1.47366e-007 2.08828e-007 1.59028e-015 0 3.18055e-015 8.1145e-007 -1.47366e-007 -2.08828e-007 1.6229e-006 -2.94732e-007 -4.17656e-007 -8.1145e-007 1.47366e-007 2.08828e-007 8.1145e-007 -1.47366e-007 -2.08828e-007 1.6229e-006 -2.94732e-007 -4.17656e-007 -8.1145e-007 1.47366e-007 2.08828e-007 1.59028e-015 0 3.18055e-015 8.1145e-007 -1.47366e-007 -2.08828e-007 1.6229e-006 -2.94732e-007 -4.17656e-007 -8.1145e-007 1.47366e-007 2.08828e-007 8.1145e-007 -1.47366e-007 -2.08828e-007 1.6229e-006 -2.94732e-007 -4.17656e-007 -8.1145e-007 1.47366e-007 2.08828e-007 40.9046 30.5511 30.7149 64.4272 37.6873 -63.4325 -12.8269 21.5641 -15.0575 -41.6223 30.4987 -31.1881 -63.8872 37.3648 63.133 11.6292 21.9088 15.9217 
